<?xml version="1.0" encoding="UTF-8" standalone="no"?>
<!-- Created with Inkscape by Victor Gasia -->

<svg
   xmlns:dc="http://purl.org/dc/elements/1.1/"
   xmlns:cc="http://creativecommons.org/ns#"
   xmlns:rdf="http://www.w3.org/1999/02/22-rdf-syntax-ns#"
   xmlns:svg="http://www.w3.org/2000/svg"
   xmlns="http://www.w3.org/2000/svg"
   xmlns:xlink="http://www.w3.org/1999/xlink"
   version="1.1"
   width="980"
   height="594"
   viewBox="0 0 980 594"
   id="svg2"
   xml:space="preserve">
    <title id="title">Estimated U.S. AIDS Diagnosis Rate 2009</title>
    <desc  id="desc">Illistration of AIDS Diagnosis per 100,000 Adults and Adolescents over 15
           date:2012-02-29
           subject:AIDS Epidemic in U.S.
           source:statehealthfacts.org
           coverage:2009 U.S.
           rights:Creative Commons Attribution-Share Alike 3.0 Unported
    </desc>
    <metadata id="metadata"><!-- Modifié par Victor Gasia --></metadata>
   <defs  id="defs"><path
     d="m 242.961,653.592 1.875,-3.438 2.187,-0.312 0.313,0.782 -2.032,2.968 h -2.343 z m 9.844,-3.594 5.937,2.501 2.032,-0.313 1.562,-3.749 -0.625,-3.281 -4.062,-0.47 -3.906,1.72 -0.938,3.592 z m 29.688,9.688 3.594,5.312 2.344,-0.312 1.094,-0.468 1.406,1.25 3.594,-0.157 0.938,-1.406 -2.813,-1.718 -1.875,-3.594 -2.031,-3.438 -5.625,2.813 -0.626,1.718 z m 19.531,8.595 1.25,-1.876 4.531,0.938 0.625,-0.468 5.937,0.625 -0.312,1.25 -2.5,1.406 -4.219,-0.313 -5.312,-1.562 z m 5.157,4.999 1.875,3.751 2.969,-1.095 0.312,-1.561 -1.563,-2.031 -3.594,-0.313 v 1.249 z m 6.718,-1.093 2.188,-2.813 4.531,2.345 4.219,1.093 4.219,2.656 v 1.875 l -3.438,1.72 -4.688,0.936 -2.344,-1.406 -4.687,-6.406 z m 16.094,15 1.563,-1.25 3.281,1.561 7.343,3.438 3.281,2.031 1.563,2.345 1.875,4.219 3.906,2.499 -0.312,1.25 -3.75,3.126 -4.062,1.406 -1.406,-0.627 -2.969,1.72 -2.344,3.124 -2.187,2.813 -1.719,-0.157 -3.438,-2.499 -0.312,-4.374 0.625,-2.345 -1.562,-5.469 -2.031,-1.718 -0.157,-2.501 2.188,-0.936 2.031,-2.969 0.469,-0.938 -1.563,-1.718 -0.313,-2.031 z"
     id="HI" /><path
     d="m 170.461,590.154 -0.312,82.501 1.563,0.938 2.969,0.157 1.406,-1.095 h 2.5 l 0.156,2.813 6.719,6.562 0.469,2.501 3.281,-1.875 0.625,-0.157 0.312,-2.969 1.406,-1.563 1.094,-0.155 1.875,-1.406 2.969,2.031 0.625,2.813 1.875,1.093 1.093,2.345 3.75,1.718 3.281,5.782 2.656,3.749 2.187,2.656 1.406,3.594 4.844,1.718 5,2.031 0.938,4.219 0.469,2.969 -0.937,3.281 -1.719,2.188 -1.563,-0.781 -1.406,-2.969 -2.656,-1.406 -1.719,-1.093 -0.782,0.782 1.406,2.656 0.156,3.594 -1.093,0.468 -1.875,-1.875 -2.031,-1.25 0.469,1.561 1.25,1.72 -0.781,0.782 c 0,0 -0.781,-0.313 -1.25,-0.938 -0.469,-0.625 -2.031,-3.281 -2.031,-3.281 l -0.937,-2.188 c 0,0 -0.312,1.25 -0.938,0.938 -0.625,-0.313 -1.25,-1.406 -1.25,-1.406 l 1.719,-1.876 -1.406,-1.406 v -4.842 h -0.782 l -0.781,3.281 -1.094,0.468 -0.937,-3.594 -0.625,-3.592 -0.782,-0.47 0.312,5.469 v 1.095 l -1.406,-1.252 -3.438,-5.78 -2.031,-0.468 -0.625,-3.594 -1.562,-2.813 -1.563,-1.093 v -2.188 l 2.031,-1.25 -0.469,-0.313 -2.5,0.625 -3.281,-2.343 -2.5,-2.813 -4.687,-2.499 -3.906,-2.501 1.25,-3.124 v -1.563 l -1.718,1.563 -2.813,1.093 -3.594,-1.093 -5.469,-2.345 h -5.313 l -0.625,0.47 -6.25,-3.751 -2.031,-0.313 -2.657,-5.624 -3.437,0.311 -3.438,1.406 0.469,4.376 1.094,-2.813 0.937,0.312 -1.406,4.219 3.125,-2.656 0.625,1.563 -3.75,4.219 -1.25,-0.313 -0.469,-1.875 -1.25,-0.782 -1.25,1.093 -2.656,-1.718 -2.969,2.031 -1.719,2.031 -3.281,2.031 -4.532,-0.157 -0.469,-2.031 3.594,-0.625 v -1.25 l -2.187,-0.625 0.937,-2.345 2.187,-3.749 v -1.72 l 0.156,-0.78 4.219,-2.188 0.937,1.25 h 2.657 l -1.25,-2.499 -3.594,-0.313 -4.844,2.656 -2.344,3.281 -1.719,2.501 -1.093,2.186 -4.062,1.406 -2.969,2.501 -0.312,1.561 2.187,0.938 0.781,2.031 -2.656,3.124 -6.25,4.062 -7.5,4.064 -2.031,1.093 -5.156,1.093 -5.156,2.188 1.719,1.25 -1.406,1.406 -0.469,1.095 -2.656,-0.938 -3.125,0.157 -0.781,2.188 h -0.938 l 0.312,-2.345 -3.437,1.25 -2.813,0.938 -3.281,-1.25 -2.812,1.875 h -3.125 l -2.031,1.25 -1.563,0.782 -2.031,-0.313 -2.5,-1.093 -2.187,0.625 -0.938,0.938 -1.562,-1.095 v -1.875 l 2.968,-1.25 6.094,0.625 4.219,-1.563 2.031,-2.031 2.812,-0.625 1.719,-0.782 2.656,0.157 1.563,1.25 0.938,-0.311 2.187,-2.656 2.968,-0.938 3.281,-0.625 1.25,-0.313 0.625,0.47 h 0.782 l 1.25,-3.594 3.906,-1.406 1.875,-3.594 2.187,-4.374 1.563,-1.406 0.312,-2.501 -1.562,1.252 -3.281,0.625 -0.625,-2.345 -1.25,-0.311 -0.938,0.936 -0.156,2.813 -1.406,-0.157 -1.406,-5.624 -1.25,1.25 -1.093,-0.47 -0.313,-1.875 -3.906,0.157 -2.031,1.093 -2.5,-0.311 1.406,-1.406 0.469,-2.501 -0.625,-1.875 1.406,-0.936 1.25,-0.157 -0.625,-1.72 v -4.217 l -0.938,-0.938 -0.781,1.406 h -5.937 l -1.406,-1.25 -0.625,-3.751 -2.031,-3.438 v -0.936 l 2.031,-0.781 0.156,-2.031 1.093,-1.095 -0.781,-0.468 -1.25,0.468 -1.093,-2.656 0.937,-4.844 4.375,-3.124 2.5,-1.563 1.875,-3.592 2.656,-1.252 2.5,1.095 0.313,2.343 2.344,-0.311 3.125,-2.345 1.563,0.625 0.938,0.625 h 1.563 l 2.187,-1.25 0.781,-4.219 c 0,0 0.312,-2.811 0.938,-3.281 0.625,-0.468 0.937,-0.936 0.937,-0.936 l -1.093,-1.876 -2.5,0.782 -3.125,0.781 -1.875,-0.468 -3.438,-1.72 -4.845,-0.158 -3.438,-3.594 0.469,-3.751 0.625,-2.343 -2.031,-1.72 -1.875,-3.592 0.469,-0.781 6.563,-0.47 h 2.031 l 0.937,0.938 h 0.625 l -0.157,-1.563 3.75,-0.625 2.5,0.313 1.406,1.093 -1.406,2.031 -0.469,1.406 2.657,1.563 4.844,1.718 1.719,-0.936 -2.187,-4.219 -0.937,-3.126 0.937,-0.78 -3.281,-1.876 -0.469,-1.093 0.469,-1.563 -0.781,-3.749 -2.812,-4.533 -2.344,-4.062 2.813,-1.875 h 3.125 l 1.719,0.625 4.063,-0.157 3.593,-3.436 1.094,-2.969 3.594,-2.345 1.563,0.938 2.656,-0.625 3.594,-2.031 1.094,-0.157 0.937,0.781 4.375,-0.157 2.657,-2.969 h 1.093 l 3.438,2.345 1.875,2.031 -0.469,1.093 0.625,1.095 1.563,-1.563 3.75,0.313 0.312,3.592 1.875,1.406 6.875,0.625 6.094,4.063 1.406,-0.936 5,2.499 2.031,-0.625 1.875,-0.781 4.688,1.876 4.216,2.812 z m -111.25,27.969 2.031,5.157 -0.156,0.936 -2.813,-0.311 -1.719,-3.905 -1.719,-1.406 h -2.344 l -0.156,-2.501 1.719,-2.343 1.093,2.343 1.406,1.406 2.658,0.624 z m -2.501,32.345 3.594,0.781 3.594,0.936 0.781,0.938 -1.562,3.594 -2.969,-0.157 -3.281,-3.438 -0.157,-2.654 z m -19.999,-13.593 1.093,2.499 1.094,1.563 -1.094,0.782 -2.031,-2.969 v -1.875 h 0.938 z m -13.282,70.624 3.281,-2.188 3.281,-0.936 2.5,0.311 0.469,1.563 1.875,0.468 1.875,-1.875 -0.312,-1.563 2.656,-0.625 2.812,2.499 -1.093,1.72 -4.219,1.093 -2.657,-0.468 -3.594,-1.093 -4.219,1.406 -1.563,0.311 -1.092,-0.623 z m 47.344,-4.376 1.562,1.877 2.032,-1.563 -1.406,-1.25 -2.188,0.936 z m 2.813,2.97 1.094,-2.188 2.031,0.313 -0.782,1.875 h -2.343 z m 22.812,-1.875 1.406,1.718 0.937,-1.093 -0.781,-1.875 -1.562,1.25 z m 8.438,-12.03 1.093,5.624 2.813,0.781 4.844,-2.813 4.219,-2.499 -1.562,-2.345 0.469,-2.343 -2.031,1.25 -2.813,-0.781 1.563,-1.093 1.875,0.781 3.75,-1.72 0.469,-1.406 -2.344,-0.782 0.781,-1.875 -2.656,1.875 -4.531,3.438 -4.688,2.813 -1.251,1.095 z m 40.937,-19.22 2.344,-1.406 -0.937,-1.72 -1.719,0.938 0.312,2.188 z"
     id="AK" /><path
     d="m 747.791,582.26 2.19,7.073 3.604,9.416 5.157,9.063 3.592,6.094 4.687,5.312 3.908,3.594 1.561,2.813 -1.093,1.25 -0.782,1.25 2.813,7.189 2.813,2.811 2.499,5.157 3.438,5.626 4.376,7.968 1.25,7.343 0.468,11.563 0.625,1.72 -0.311,3.281 -2.345,1.25 0.313,1.875 -0.625,1.875 0.311,2.345 0.47,1.875 -2.658,3.126 -2.968,1.404 -3.751,0.157 -1.406,1.563 -2.343,0.938 -1.25,-0.47 -1.095,-0.936 -0.311,-2.813 -0.782,-3.281 -3.281,-5.001 -3.438,-2.188 -3.751,-0.311 -0.782,1.25 -2.968,-4.219 -0.625,-3.438 -2.501,-3.906 -1.718,-1.095 -1.563,2.031 -1.718,-0.312 -2.031,-4.844 -2.813,-3.749 -2.813,-5.157 -2.499,-2.969 -3.438,-3.592 2.031,-2.345 3.124,-5.312 -0.157,-1.563 -4.374,-0.936 -1.563,0.625 0.313,0.625 2.499,0.936 -1.406,4.376 -0.782,0.468 -1.718,-3.906 -1.25,-4.687 -0.313,-2.656 1.406,-4.531 v -9.22 l -2.969,-3.594 -1.25,-2.968 -4.999,-1.25 -1.876,-0.625 -1.561,-2.501 -3.283,-1.561 -1.093,-3.283 -2.656,-0.936 -2.345,-3.594 -4.062,-1.406 -2.813,-1.406 h -2.499 l -3.906,0.782 -0.157,1.875 0.782,0.938 -0.468,1.093 -2.969,-0.157 -3.594,3.438 -3.438,1.876 h -3.749 l -3.124,1.25 -0.313,-2.656 -1.563,-1.876 -2.813,-1.093 -1.557,-1.411 -7.813,-3.749 -7.343,-1.72 -4.219,0.625 -5.78,0.47 -5.782,2.031 -3.362,0.591 -0.23,-7.779 -2.499,-1.875 -1.72,-1.72 0.313,-2.968 9.843,-1.252 24.688,-2.811 6.562,-0.625 5.255,0.27 2.499,3.751 1.406,1.404 7.827,0.498 10.458,-0.625 20.792,-1.25 5.263,-0.651 4.425,0.026 0.157,2.813 3.696,0.782 0.311,-4.646 -1.563,-4.376 0.923,-0.708 4.942,0.44 5,0.314 z m 12.125,127.975 2.343,-0.625 1.252,-0.236 1.406,-2.265 2.265,-1.561 1.25,0.468 1.64,0.312 0.391,1.016 -3.36,1.172 -4.063,1.406 -2.265,1.172 -0.859,-0.859 z m 13.047,-4.844 1.172,1.016 2.656,-2.031 5.157,-4.062 3.592,-3.751 2.422,-6.405 0.938,-1.641 0.157,-3.283 -0.704,0.47 -0.938,2.733 -1.404,4.453 -3.126,5.078 -4.219,4.062 -3.281,1.875 -2.422,1.486 z"
     id="FL" /><path
     d="m 753.428,550.781 -1.716,0.936 -2.501,-1.25 -0.625,-2.031 -1.25,-3.438 -2.188,-2.031 -2.499,-0.625 -1.563,-4.687 -2.656,-5.782 -4.063,-1.875 -2.031,-1.875 -1.25,-2.499 -2.031,-1.876 -2.188,-1.25 -2.188,-2.813 -2.968,-2.186 -4.376,-1.72 -0.468,-1.406 -2.345,-2.813 -0.468,-1.406 -3.281,-4.999 -3.281,0.157 -3.908,-2.345 -1.25,-1.25 -0.312,-1.72 0.782,-1.875 2.186,-0.938 -0.311,-2.031 5.937,-2.499 8.75,-4.374 7.032,-0.782 15.936,-0.47 2.188,1.876 1.563,3.124 4.219,-0.468 12.187,-1.406 2.813,0.782 12.187,7.343 9.769,7.849 -5.24,5.276 -2.499,5.937 -0.468,6.094 -1.563,0.782 -1.093,2.656 -2.345,0.625 -2.031,3.438 -2.656,2.656 -2.188,3.281 -1.561,0.781 -3.438,3.281 -2.813,0.157 0.936,3.126 -4.844,5.312 -2.029,1.251 z"
     id="SC" /><path
     d="m 684.211,497.656 -4.687,0.782 -8.125,1.093 -8.282,0.859 v 2.111 l 0.157,2.031 0.625,3.281 3.281,7.657 2.343,9.531 1.406,5.937 1.563,4.687 1.406,6.719 2.031,6.094 2.499,3.281 0.47,3.281 1.875,0.782 0.157,2.031 -1.72,4.687 -0.468,3.126 -0.157,1.875 1.563,4.219 0.311,5.155 -0.78,2.345 0.625,0.781 1.406,0.782 0.625,3.281 2.499,3.749 1.406,1.406 7.657,0.157 10.456,-0.625 20.794,-1.25 5.263,-0.653 4.423,0.028 0.157,2.811 2.501,0.782 0.311,-4.217 -1.563,-4.376 1.095,-1.563 5.624,0.781 4.812,0.308 -0.749,-6.088 2.188,-9.688 1.406,-4.062 -0.47,-2.499 3.224,-6.035 -0.495,-1.306 -1.848,0.68 -2.501,-1.25 -0.625,-2.031 -1.25,-3.438 -2.188,-2.031 -2.499,-0.625 -1.563,-4.687 -2.826,-6.122 -4.063,-1.876 -2.031,-1.875 -1.252,-2.499 -2.031,-1.876 -2.186,-1.25 -2.188,-2.813 -2.969,-2.186 -4.374,-1.72 -0.47,-1.406 -2.343,-2.813 -0.47,-1.406 -3.281,-4.742 -3.281,0.155 -3.991,-2.941 -1.252,-1.25 -0.311,-1.72 0.781,-1.875 2.273,-1.193 -1.097,-1.182 0.076,-0.281 -5.625,0.938 -6.719,0.78 -6.559,0.467 z"
     id="GA" /><path
     d="m 622.335,602.812 -1.561,-14.687 -2.656,-18.126 0.157,-13.594 0.782,-29.998 -0.157,-16.095 0.159,-6.203 7.498,-0.359 26.874,-2.499 8.623,-0.642 -0.142,2.111 0.157,2.031 0.625,3.281 3.281,7.657 2.343,9.531 1.406,5.937 1.563,4.687 1.406,6.719 2.031,6.094 2.499,3.281 0.47,3.283 1.875,0.782 0.157,2.031 -1.72,4.687 -0.468,3.124 -0.157,1.875 1.563,4.219 0.312,5.157 -0.782,2.343 0.627,0.781 1.405,0.782 1,2.45 h -6.094 l -6.562,0.625 -24.688,2.813 -10.062,1.359 -0.094,3.626 1.72,1.72 2.499,1.875 0.563,7.67 -5.357,2.486 -2.656,-0.311 2.656,-1.876 V 602.5 l -2.969,-5.782 -2.186,-0.625 -1.406,4.219 -1.252,2.656 -0.625,-0.157 h -2.657 z"
     id="AL" /><path
     d="m 821.933,440.146 1.652,4.542 3.438,6.25 2.345,2.343 0.625,2.188 -2.345,0.157 0.782,0.625 -0.312,4.062 -2.501,1.25 -0.625,2.031 -1.25,2.813 -3.594,1.563 -2.343,-0.313 -1.406,-0.157 -1.563,-1.25 0.313,1.25 v 0.938 h 1.875 l 0.781,1.25 -1.875,6.094 h 4.062 l 0.625,1.563 2.186,-2.188 1.252,-0.468 -1.876,3.438 -2.968,4.687 h -1.25 l -1.095,-0.468 -2.656,0.625 -5.001,2.343 -6.248,5.157 -3.283,4.529 -1.875,6.25 -0.468,2.343 -4.531,0.47 -5.271,1.291 -9.614,-7.929 -12.187,-7.343 -2.813,-0.782 -12.187,1.406 -4.134,0.725 -1.561,-3.124 -2.871,-2.046 -15.938,0.468 -7.03,0.782 -8.75,4.376 -5.939,2.499 -1.561,0.313 -5.626,0.936 -6.719,0.782 -6.564,0.47 0.483,-3.919 1.72,-1.406 2.656,-0.625 0.625,-3.594 4.062,-2.656 3.751,-1.406 4.062,-3.438 4.217,-2.031 0.625,-2.969 3.751,-3.749 0.625,-0.157 c 0,0 0,1.093 0.782,1.093 0.782,0 1.875,0.313 1.875,0.313 l 2.188,-3.438 2.031,-0.625 2.188,0.313 1.561,-3.438 2.813,-2.501 0.47,-2.031 v -3.828 l 4.374,0.704 6.898,-1.25 15.291,-1.876 16.561,-2.499 19.255,-3.866 19.074,-4.026 10.983,-2.702 4.973,-1.134 z m 3.764,31.884 2.501,-2.422 3.047,-2.499 1.484,-0.625 0.157,-1.954 -0.625,-5.937 -1.406,-2.265 -0.625,-1.797 0.702,-0.234 2.656,5.312 0.391,4.297 -0.157,3.281 -3.281,1.486 -2.733,2.343 -1.095,1.172 -1.016,-0.158 z"
     id="NC" /><path
     d="m 691.398,461.562 -50.156,4.844 -15.232,1.718 -4.466,0.496 -3.74,-0.026 v 3.749 l -8.125,0.468 -6.719,0.625 -10.724,0.051 -0.255,5.641 -2.067,6.065 -0.963,2.917 -1.303,4.234 -0.313,2.499 -3.906,2.188 1.406,3.438 -0.938,4.217 -0.934,0.765 7.013,-0.189 23.28,-1.875 5.157,-0.157 7.812,-0.468 26.876,-2.499 9.83,-0.782 8.138,-0.938 8.125,-1.093 4.689,-0.782 -0.127,-4.359 1.718,-1.406 2.656,-0.625 0.625,-3.594 4.063,-2.656 3.751,-1.406 4.062,-3.438 4.219,-2.031 0.844,-3.407 4.189,-3.749 0.625,-0.157 c 0,0 0,1.093 0.781,1.093 0.782,0 1.875,0.313 1.875,0.313 l 2.188,-3.438 2.031,-0.625 2.188,0.313 1.561,-3.438 2.044,-2.171 0.58,-0.934 0.17,-3.802 -1.433,-0.277 -2.345,1.875 -7.657,0.157 -11.593,1.837 -9.5,0.819 z"
     id="TN" /><path
     d="m 862.491,325.469 -0.466,-4.063 -0.782,-4.219 -1.64,-5.703 5.546,-1.484 1.563,1.094 3.281,4.219 2.811,4.297 -2.813,1.485 -1.25,-0.156 -1.095,1.719 -2.343,1.875 -2.812,0.936 z"
     id="RI" /><path
     d="m 861.644,325.688 -0.606,-4.063 -0.782,-4.219 -1.563,-5.781 -4.011,0.875 -21.094,4.609 0.625,3.203 1.406,7.031 v 7.813 l -1.095,2.187 1.771,2.039 4.791,-3.288 3.436,-3.125 1.876,-2.031 0.782,0.625 2.656,-1.406 4.999,-1.094 6.809,-3.375 z"
     id="CT" /><path
     d="m 887.531,319.696 2.099,-0.663 0.444,-1.657 0.993,0.11 0.995,2.21 -1.216,0.442 -3.757,0.11 0.442,-0.552 z m -9.06,0.774 2.211,-2.541 h 1.546 l 1.769,1.436 -2.32,0.994 -2.101,0.994 -1.105,-0.883 z m -33.634,-21.253 16.875,-4.062 2.188,-0.625 2.031,-3.125 3.611,-1.607 2.794,4.265 -2.345,5 -0.313,1.406 1.876,2.5 1.093,-0.782 h 1.72 l 2.186,2.5 3.751,5.781 3.438,0.469 2.188,-0.937 1.718,-1.718 -0.781,-2.657 -2.031,-1.563 -1.406,0.782 -0.936,-1.25 0.468,-0.469 2.031,-0.156 1.718,0.781 1.876,2.344 0.936,2.813 0.313,2.344 -4.062,1.406 -3.751,1.875 -3.749,4.375 -1.875,1.406 v -0.938 l 2.343,-1.406 0.468,-1.719 -0.78,-2.969 -2.813,1.406 -0.782,1.406 0.468,2.187 -1.997,0.967 -2.654,-4.376 -3.281,-4.219 -2.003,-1.752 -6.315,1.813 -4.921,1.016 -21.094,4.609 -0.389,-4.779 0.625,-10.234 5.001,-0.859 6.562,-1.249"
     id="MA" /><path
     d="m 909.991,226.406 1.875,2.031 2.188,3.594 v 1.875 l -2.031,4.531 -1.875,0.625 -3.281,2.969 -4.687,5.313 c 0,0 -0.625,0 -1.25,0 -0.627,0 -0.938,-2.031 -0.938,-2.031 l -1.72,0.156 -0.936,1.406 -2.345,1.406 -0.936,1.406 1.561,1.406 -0.468,0.625 -0.468,2.657 -1.876,-0.156 v -1.563 l -0.311,-1.25 -1.406,0.312 -1.718,-3.125 -2.033,1.25 1.252,1.406 0.311,1.094 -0.781,1.25 0.313,2.969 0.157,1.563 -1.563,2.5 -2.813,0.469 -0.311,2.813 -5.157,2.969 -1.25,0.469 -1.563,-1.406 -2.968,3.437 0.936,3.125 -1.406,1.25 -0.155,4.219 -1.087,6.05 -2.379,-1.117 -0.47,-2.969 -3.749,-1.093 -0.313,-2.657 -7.03,-22.656 -4.059,-13.183 1.372,-0.114 1.463,0.396 v -2.5 l 0.782,-5.312 2.501,-4.532 1.406,-3.906 -1.876,-2.344 v -5.781 l 0.782,-0.937 0.781,-2.657 -0.157,-1.406 -0.157,-4.687 1.72,-4.687 2.813,-8.594 2.031,-4.062 h 1.25 l 1.25,0.156 v 1.094 l 1.25,2.187 2.656,0.625 0.781,-0.781 v -0.938 l 3.908,-2.812 1.718,-1.719 1.406,0.156 5.78,2.344 1.876,0.938 8.75,28.906 h 5.78 l 0.781,1.875 0.157,4.687 2.813,2.187 h 0.781 l 0.155,-0.469 -0.468,-1.094 2.655,-0.158 z m -20.231,29.139 1.484,-1.485 1.329,1.016 0.547,2.344 -1.64,0.859 -1.72,-2.734 z m 6.484,-5.703 1.72,1.797 c 0,0 1.25,0.078 1.25,-0.234 0,-0.312 0.234,-1.953 0.234,-1.953 l 0.859,-0.781 -0.781,-1.719 -1.952,0.703 -1.33,2.187 z"
     id="ME" /><path
     d="m 868.995,289.322 0.84,-1.041 1.053,-3.181 -2.458,-0.883 -0.468,-2.969 -3.749,-1.094 -0.313,-2.656 -7.032,-22.656 -4.448,-14.056 -0.867,-0.005 -0.625,1.563 -0.625,-0.469 -0.938,-0.937 -1.406,1.875 -0.045,4.863 0.3,5.478 1.875,2.656 v 3.906 l -3.592,4.894 -2.501,1.093 v 1.094 l 1.095,1.719 v 8.281 l -0.781,8.906 -0.157,4.687 0.938,1.25 -0.157,4.375 -0.468,1.719 1.406,0.857 15.84,-4.533 2.188,-0.625 1.484,-2.467 3.611,-1.644 z"
     id="NH" /><path
     d="m 833.76,300.245 -0.781,-5.469 -2.311,-9.638 -0.625,-0.312 -2.813,-1.25 0.781,-2.812 -0.781,-2.031 -2.609,-4.485 0.936,-3.75 -0.78,-5 -2.345,-6.25 -0.778,-4.758 25.368,-6.522 0.313,5.624 1.876,2.657 v 3.906 l -3.594,3.906 -2.499,1.094 v 1.093 l 1.093,1.719 v 8.281 l -0.781,8.906 -0.157,4.687 0.938,1.25 -0.157,4.375 -0.468,1.719 0.638,1.514 -6.719,1.328 -3.745,0.218 z"
     id="VT" /><path
     d="m 818.558,334.746 -1.095,-0.937 -2.499,-0.156 -2.188,-1.875 -1.576,-5.924 -3.341,0.088 -2.363,-2.618 -18.736,4.235 -41.563,8.438 -7.277,1.187 -0.714,-6.252 1.38,-1.087 1.25,-1.094 0.938,-1.563 1.72,-1.093 1.875,-1.719 0.468,-1.563 2.031,-2.656 1.095,-0.938 -0.157,-0.937 -1.25,-2.969 -1.72,-0.156 -1.875,-5.937 2.813,-1.719 4.219,-1.406 3.906,-1.25 3.124,-0.469 6.094,-0.156 1.875,1.25 1.563,0.156 2.031,-1.25 2.501,-1.094 4.999,-0.469 2.031,-1.719 1.72,-3.125 1.561,-1.875 h 2.031 l 1.876,-1.093 0.155,-2.187 -1.406,-2.031 -0.311,-1.406 1.093,-2.031 v -1.406 h -1.718 l -1.72,-0.781 -0.781,-1.094 -0.155,-2.5 5.624,-5.313 0.627,-0.781 1.405,-2.813 2.813,-4.375 2.656,-3.594 2.031,-2.344 2.335,-1.765 2.979,-1.204 5.312,-1.25 3.124,0.156 4.376,-1.406 7.311,-2.002 0.502,4.813 2.345,6.25 0.782,5 -0.938,3.75 2.499,4.375 0.782,2.031 -0.782,2.812 2.813,1.25 0.625,0.312 2.969,10.625 -0.519,4.89 -0.468,10.469 0.782,5.313 0.781,3.438 1.406,7.031 v 7.813 l -1.095,2.187 1.778,1.926 0.77,1.622 -1.875,1.719 0.312,1.25 1.25,-0.312 1.406,-1.25 2.188,-2.5 1.093,-0.625 1.563,0.625 2.188,0.156 7.657,-3.75 2.813,-2.656 1.25,-1.406 4.062,1.563 -3.281,3.437 -3.751,2.813 -6.877,5.155 -2.499,0.937 -5.626,1.875 -3.906,1.094 -1.136,-0.515 -0.236,-3.565 0.47,-2.656 -0.157,-2.031 -2.72,-1.642 -4.374,-0.938 -3.751,-1.093 -3.592,-1.72 z"
     id="NY" /><path
     d="m 818.118,335.624 -2.031,2.344 v 2.969 l -1.875,2.969 -0.157,1.562 1.25,1.25 -0.155,2.344 -2.188,1.094 0.782,2.656 0.157,1.094 2.656,0.312 0.936,2.5 3.438,2.344 2.345,1.563 v 0.782 l -3.126,2.969 -1.561,2.187 -1.406,2.657 -2.188,1.25 -1.172,0.703 -0.234,1.172 -0.589,2.52 1.055,2.169 3.126,2.812 4.687,2.188 3.906,0.625 0.157,1.406 -0.783,0.935 0.313,2.657 h 0.78 l 2.031,-2.344 0.781,-4.687 2.656,-3.906 2.969,-6.25 1.093,-5.313 -0.625,-1.094 -0.156,-9.063 -1.561,-3.281 -1.095,0.781 -2.656,0.313 -0.468,-0.469 1.093,-0.937 2.031,-1.875 0.062,-1.057 -0.372,-3.319 0.468,-2.656 -0.157,-2.031 -2.499,-1.094 -4.374,-0.937 -3.751,-1.094 -3.593,-1.72 z"
     id="NJ" /><path
     d="m 812.364,370.544 1.095,-0.625 2.186,-0.592 1.406,-2.656 1.563,-2.187 3.124,-2.969 v -0.781 l -2.343,-1.563 -3.438,-2.344 -0.938,-2.5 -2.656,-0.312 -0.157,-1.093 -0.78,-2.657 2.186,-1.093 0.157,-2.344 -1.25,-1.25 0.157,-1.563 1.875,-2.969 v -2.969 l 2.265,-2.344 0.208,-1.047 -2.499,-0.156 -2.188,-1.875 -2.345,-5.156 -2.903,-0.9 -2.252,-2.069 -17.97,3.906 -41.563,8.438 -8.593,1.406 -0.479,-6.847 -5.303,5.441 -1.252,0.469 -4.061,2.908 2.813,18.497 2.399,9.404 3.453,18.617 3.158,-0.616 11.546,-1.453 36.656,-7.408 14.379,-2.729 8.021,-1.568 0.259,-0.23 2.031,-1.563 2.033,-0.658 z"
     id="PA" /><path
     d="m 812.505,374.375 0.568,-2.033 0.021,-1.164 -1.225,-0.085 -2.031,1.563 -1.406,1.406 1.406,4.062 2.186,5.469 2.031,9.375 1.563,6.094 4.844,-0.156 5.937,-1.171 -2.19,-7.109 -0.936,0.469 -3.438,-2.344 -1.72,-4.531 -1.875,-3.438 -2.188,-0.938 -2.031,-3.437 0.484,-2.032 z"
     id="DE" /><path
     d="m 826.616,398.424 -5.935,1.249 -5.612,0.156 -1.78,-6.862 -2.031,-9.375 -2.188,-5.469 -1.246,-4.251 -7.255,1.568 -14.379,2.729 -36.198,7.299 1.095,4.844 0.936,5.469 0.313,-0.312 2.031,-2.344 2.186,-2.53 2.345,-0.595 1.406,-1.406 1.718,-2.5 1.252,0.625 2.811,-0.313 2.501,-2.031 1.939,-1.404 1.784,-0.469 1.589,1.092 2.813,1.406 1.875,1.719 1.172,1.484 3.985,1.64 v 2.813 l 5.312,1.25 1.106,0.524 1.365,-1.96 2.784,1.904 -1.235,2.399 -0.74,3.852 -1.72,2.5 v 2.031 l 0.627,1.719 4.893,1.31 4.168,-0.059 2.968,0.938 2.031,0.312 0.938,-2.031 -1.406,-2.031 v -1.719 l -2.345,-2.031 -2.031,-5.313 1.25,-5.156 -0.155,-2.031 -1.25,-1.25 c 0,0 1.404,-1.563 1.404,-2.188 0,-0.625 0.47,-2.031 0.47,-2.031 l 1.875,-1.25 1.875,-1.563 0.47,0.938 -1.406,1.562 -1.252,3.594 0.313,1.094 1.718,0.312 0.47,5.313 -2.031,0.937 0.312,3.438 0.47,-0.156 1.093,-1.875 1.563,1.719 -1.563,1.25 -0.313,3.281 2.501,3.281 3.749,0.469 1.563,-0.781 3.128,4.043 1.314,0.519 6.43,-2.704 1.941,-3.889 0.219,-4.703 z m -16.074,8.684 1.093,2.422 0.157,1.718 1.093,1.797 c 0,0 0.859,-0.859 0.859,-1.172 0,-0.312 -0.702,-2.969 -0.702,-2.969 l -0.704,-2.265 -1.796,0.469 z"
     id="MD" /><path
     d="m 748.914,385.533 1.076,4.779 1.046,6.676 3.441,-2.657 2.188,-2.969 2.452,-0.595 1.406,-1.406 1.72,-2.5 1.14,0.625 2.813,-0.312 2.499,-2.031 1.939,-1.405 1.784,-0.469 1.261,0.982 2.154,1.077 1.875,1.719 1.329,1.25 -0.138,4.515 -5.469,-2.969 -4.376,-1.719 -0.157,5.156 -0.468,2.031 -1.563,2.656 -0.625,1.563 -2.968,2.344 -0.47,2.188 -3.281,0.312 -0.312,2.968 -1.095,5.313 h -2.499 l -1.25,-0.781 -1.563,-2.657 -1.718,0.156 -0.313,4.219 -2.031,6.407 -4.844,10.469 0.782,1.25 -0.157,2.656 -2.031,1.875 -1.406,-0.312 -3.124,2.344 -2.499,-0.937 -1.72,4.532 c 0,0 -3.594,0.782 -4.219,0.937 -0.625,0.156 -2.343,-1.251 -2.343,-1.251 l -2.345,2.188 -2.499,0.625 -2.813,-0.782 -1.25,-1.25 -2.12,-2.922 -3.037,-1.921 -2.499,-2.656 -2.813,-3.594 -0.625,-2.187 -2.499,-1.406 -0.782,-1.563 -0.234,-5.078 2.109,-0.078 1.875,-0.781 0.157,-2.656 1.563,-1.406 0.157,-4.844 0.936,-3.75 1.25,-0.625 1.252,1.094 0.468,1.719 1.718,-0.938 0.47,-1.563 -1.095,-1.719 v -2.344 l 0.938,-1.25 2.188,-3.281 1.25,-1.406 2.031,0.469 2.188,-1.563 2.968,-3.281 2.188,-3.75 0.313,-5.469 0.468,-4.844 v -4.531 l -1.093,-2.969 0.936,-1.406 1.24,-1.25 3.375,19.164 4.476,-0.726 10.924,-1.499 z"
     id="WV" /><path
     d="m 715.301,439.514 -2.246,2.593 -4.062,3.438 -4.155,5.705 -1.72,1.718 V 455 l -3.749,2.031 -5.469,3.281 -3.402,0.372 -50.133,4.734 -15.232,1.718 -4.466,0.496 -3.738,-0.026 -0.221,4.078 -7.904,0.14 -6.719,0.627 -10.083,0.198 1.848,-0.215 2.109,-1.703 1.988,-1.104 0.221,-3.094 0.883,-1.767 -1.552,-2.454 0.774,-1.844 2.188,-1.718 2.031,-0.625 2.656,1.25 3.438,1.25 1.093,-0.311 0.157,-2.188 -1.25,-2.345 0.313,-2.186 1.875,-1.406 2.499,-0.625 1.563,-0.627 -0.782,-1.718 -0.625,-1.875 1.093,-0.782 1.016,-3.204 2.892,-1.64 5.624,-0.937 3.438,-0.469 1.406,1.875 1.72,0.782 1.718,-3.124 2.813,-1.407 1.875,1.563 0.782,1.094 2.031,-0.468 -0.157,-3.282 2.813,-1.563 1.095,-0.781 1.093,1.562 h 4.531 l 0.782,-2.031 -0.311,-2.187 2.813,-3.438 4.531,-3.75 0.468,-4.375 2.656,-0.312 3.751,-1.719 2.656,-1.875 -0.313,-1.875 -1.406,-1.406 0.547,-2.109 3.985,-0.235 2.343,-0.781 2.813,1.563 1.563,4.219 5.625,0.312 1.718,1.719 2.031,0.156 2.345,-1.406 2.968,0.469 1.25,1.406 2.656,-2.5 1.72,-1.25 h 1.563 l 0.625,2.657 1.718,0.937 2.341,2.141 0.157,5.312 0.782,1.563 2.499,1.406 0.625,2.187 2.813,3.594 2.499,2.656 3.276,1.903 z"
     id="KY" /><path
     d="m 724.63,340.145 -5.888,3.918 -3.751,2.187 -3.281,3.594 -3.906,3.75 -3.126,0.781 -2.813,0.469 -5.312,2.5 -2.031,0.156 -3.281,-2.969 -5.001,0.625 -2.499,-1.406 -2.301,-1.305 -4.729,0.68 -9.845,1.563 -7.5,1.172 1.252,14.141 1.718,13.281 2.499,22.656 0.547,4.669 3.985,-0.125 2.343,-0.782 3.251,1.453 2.003,4.219 4.967,-0.017 1.827,2.048 1.703,-0.063 2.454,-1.296 2.42,0.359 1.909,1.406 1.669,-2.061 2.267,-1.25 2.001,-0.658 0.625,2.656 1.718,0.937 3.36,2.266 2.109,-0.078 1.108,-1.11 -0.064,-1.34 1.563,-1.406 0.157,-4.844 0.938,-3.75 1.469,-1.393 1.469,0.874 0.799,1.17 1.17,-0.17 -0.41,-2.33 -0.544,-0.622 v -2.344 l 0.936,-1.25 2.188,-3.281 1.25,-1.406 2.031,0.469 2.188,-1.562 2.969,-3.281 2.186,-3.75 0.204,-5.249 0.468,-4.844 v -4.531 l -1.093,-2.969 0.936,-1.406 0.891,-0.923 -1.359,-9.513 -2.813,-18.715 z"
     id="OH" /><path
     d="m 579.828,230.976 1.769,-1.989 2.099,-0.774 5.193,-3.757 2.209,-0.552 0.442,0.442 -4.972,4.972 -3.204,1.878 -1.988,0.884 -1.548,-1.104 z m 83.292,31.053 0.625,2.422 3.124,0.156 1.25,-1.172 c 0,0 -0.077,-1.406 -0.391,-1.563 -0.311,-0.156 -1.561,-1.797 -1.561,-1.797 l -2.111,0.234 -1.561,0.156 -0.313,1.094 0.938,0.47 z m 29.06,60.94 -3.126,-7.969 -2.188,-8.75 -2.343,-3.125 -2.499,-1.719 -1.563,1.094 -3.751,1.719 -1.875,4.844 -2.656,3.594 -1.093,0.625 -1.406,-0.625 c 0,0 -2.501,-1.406 -2.345,-2.031 0.157,-0.625 0.468,-4.844 0.468,-4.844 l 3.283,-1.25 0.78,-3.281 0.627,-2.5 2.343,-1.563 -0.312,-9.688 -1.563,-2.187 -1.25,-0.782 -0.781,-2.031 0.781,-0.781 1.561,0.312 0.157,-1.563 -2.343,-2.187 -1.252,-2.5 h -2.499 l -4.374,-1.406 -5.314,-3.281 h -2.656 l -0.625,0.625 -0.936,-0.469 -2.969,-2.188 -2.813,1.719 -2.813,2.187 0.313,3.438 0.936,0.312 2.031,0.469 0.47,0.781 -2.501,0.781 -2.499,0.313 -1.406,1.718 -0.312,2.031 0.312,1.563 0.313,5.313 -3.438,2.031 -0.625,-0.156 V 287.5 l 1.25,-2.344 0.625,-2.344 -0.782,-0.781 -1.875,0.781 -0.938,4.063 -2.656,1.093 -1.718,1.875 -0.157,0.938 0.625,0.781 -0.625,2.5 -2.188,0.469 v 1.094 l 0.781,2.344 -1.093,5.937 -1.563,3.906 0.625,4.532 0.468,1.093 -0.781,2.344 -0.312,0.782 -0.313,2.656 3.438,5.781 2.813,6.25 1.406,4.688 -0.781,4.531 -0.936,5.781 -2.345,5 -0.313,2.656 -3.149,2.982 4.261,-0.157 20.701,-2.188 7.036,-0.954 0.093,1.611 6.622,-1.172 9.954,-1.453 3.725,-0.445 0.134,-0.568 0.157,-1.406 2.031,-3.594 1.933,-1.68 -0.216,-4.882 1.544,-1.544 1.053,-0.331 0.215,-3.438 1.484,-2.93 1.016,0.586 0.157,0.625 0.781,0.156 1.875,-0.937 -0.311,-9.218 z m -126.006,-63.814 0.693,-0.561 2.656,-0.781 3.438,-2.188 v -0.937 l 0.625,-0.625 5.782,-0.938 2.343,-1.875 4.219,-2.031 0.157,-1.25 1.875,-2.812 1.718,-0.781 1.252,-1.719 2.186,-2.187 4.219,-2.344 4.531,-0.469 1.095,1.094 -0.313,0.937 -3.592,0.938 -1.406,2.969 -2.188,0.782 -0.468,2.344 -2.345,3.125 -0.313,2.5 0.781,0.469 0.938,-1.094 3.438,-2.812 1.25,1.25 h 2.188 l 3.124,0.937 1.406,1.094 1.406,2.969 2.656,2.657 3.751,-0.157 1.406,-0.937 1.561,1.25 1.563,0.469 1.25,-0.782 h 1.095 l 1.561,-0.937 3.906,-3.438 3.283,-1.093 6.405,-0.312 4.376,-1.875 2.499,-1.25 1.406,0.156 v 5.469 l 0.468,0.312 2.813,0.781 1.875,-0.469 5.939,-1.563 1.093,-1.093 1.406,0.469 v 6.719 l 3.124,2.969 1.252,0.625 1.25,0.938 -1.25,0.312 -0.782,-0.312 -3.594,-0.469 -2.031,0.625 -2.188,-0.156 -3.124,1.406 h -1.72 l -5.624,-1.25 -5.001,0.156 -1.875,2.5 -6.719,0.625 -2.345,0.781 -1.093,2.969 -1.25,1.093 -0.47,-0.156 -1.406,-1.563 -4.374,2.344 h -0.625 l -1.095,-1.562 -0.782,0.156 -1.875,4.219 -0.936,3.906 -3.075,6.767 -1.138,-1 -1.325,-0.997 -1.876,-9.944 -3.424,-1.324 -1.984,-2.21 -11.715,-2.651 -2.76,-0.995 -7.955,-2.1 -7.627,-1.105 -3.595,-4.977 z"
     id="MI" /><path
     d="m 360.1,290.6 c -38,-4 -68,-7.9 -103.52,-12.8 l -13.25,85.3 31.32,3.02 19.88,2.23 35.55,3.98 23.02,2.76 7,-84.49 z"
     id="WY" /><path
     d="m 362.408,269.845 5.3,-63.3 c -60,-6.2 -90,-11.5 -150.5,-21.8 l -16.548,-3.925 -4.329,20.633 3.314,7.292 -1.326,4.419 1.768,4.42 3.094,1.326 4.466,10.409 2.605,3.07 0.442,1.105 3.314,1.105 0.442,1.989 -6.85,17.015 v 2.43 l 2.431,3.094 h 0.883 l 4.641,-2.873 0.663,-1.105 1.547,0.663 -0.221,5.082 2.652,12.153 2.872,2.431 0.884,0.663 1.768,2.21 -0.442,3.314 0.663,3.315 1.105,0.883 2.21,-2.21 h 2.651 l 3.094,1.547 2.431,-0.884 h 3.977 l 3.535,1.547 2.652,-0.442 0.442,-2.873 2.873,-0.663 1.326,1.326 0.442,3.094 1.72,1.319 1.482,-11.178 c 35,4.9 65,8.8 104.12,12.8 l 1.47,-14.91 0.937,-4.491 z"
     id="MT" /><path
     d="m 153.936,322.362 4.279,-16.917 4.198,-17.125 1.326,-4.088 2.43,-5.745 -1.215,-2.21 -2.431,0.11 -0.773,-0.994 0.442,-1.105 0.331,-2.983 4.309,-5.303 1.767,-0.442 1.105,-1.104 0.552,-3.094 0.884,-0.663 3.757,-5.635 3.756,-4.198 0.221,-3.646 -3.315,-2.541 -1.27,-4.254 0.387,-9.336 3.536,-15.91 4.309,-20.108 3.646,-13.037 0.736,-3.676 12.561,2.443 -4.019,20.788 2.849,7.447 -1.016,4.419 1.923,4.42 3.094,1.636 4.311,9.478 2.605,3.691 0.597,1.105 3.314,1.105 0.442,2.454 -6.695,16.239 0.31,3.206 2.586,2.783 1.815,0.465 4.64,-3.493 0.353,-0.485 0.151,0.818 0.244,3.996 2.497,12.463 3.338,2.586 0.419,0.818 2.078,2.365 -0.752,2.694 0.663,3.625 1.88,0.884 2.055,-1.589 2.497,-0.465 3.248,1.547 2.431,-0.574 3.667,-0.155 3.846,1.547 2.652,-0.287 0.907,-2.252 2.407,-1.593 0.706,1.636 0.597,2.163 2.231,2.454 -3.646,23.179 -4.972,28.038 -4.02,-0.308 -7.91,-1.481 -9.478,-1.768 -11.756,-2.299 -12.109,-2.42 -8.199,-1.778 -8.949,-1.613 -8.926,-1.724 c -21.855,-4.197 -13.675,-2.751 -20.434,-4.204 z"
     id="ID" /><path
     d="m 108.116,157.813 4.219,1.406 9.375,2.656 8.281,1.875 19.375,5.469 22.188,5.469 14.653,3.281 -0.971,3.754 -3.956,13.348 -4.309,20.108 -3.07,15.599 -0.34,9.065 -12.74,-3.764 -15.049,-3.27 -13.21,0.576 -1.528,-1.481 -5.148,1.833 -3.844,-0.242 -2.63,-1.702 -1.526,0.508 -4.064,-0.221 -1.813,-1.326 -4.617,-1.679 -1.394,-0.2 -4.819,-1.281 -1.723,1.457 -5.501,-0.331 -4.659,-3.667 0.198,-0.773 0.066,-7.668 -2.054,-3.757 -3.978,-0.707 -0.353,-2.276 -2.43,-0.606 -2.785,-0.517 -1.718,0.938 -2.188,-2.813 0.313,-2.812 2.656,-0.312 1.563,-3.906 -2.5,-1.094 0.157,-3.594 4.219,-0.625 -2.657,-2.657 -1.407,-6.874 0.625,-2.812 v -7.657 l -1.719,-3.125 2.187,-9.063 2.031,0.469 2.344,2.812 2.657,2.5 3.125,1.876 4.375,2.031 2.968,0.625 2.813,1.406 3.281,0.938 2.187,-0.156 V 172.5 l 1.25,-1.093 2.031,-1.25 0.312,1.094 0.313,1.719 -2.188,0.469 -0.312,2.031 1.719,1.406 1.094,2.344 0.625,1.875 1.406,-0.156 0.156,-1.25 -0.938,-1.25 -0.469,-3.125 0.781,-1.719 -0.625,-1.406 V 170 l 1.719,-3.437 -1.094,-2.5 -2.344,-4.687 0.312,-0.782 1.096,-0.781 z m -9.14,5.778 1.953,-0.156 0.469,1.328 1.485,-1.563 h 2.265 l 0.782,1.484 -1.484,1.641 0.625,0.781 -0.703,1.953 -1.328,0.39 c 0,0 -0.859,0.078 -0.859,-0.234 0,-0.312 1.406,-2.5 1.406,-2.5 l -1.641,-0.547 -0.312,1.406 -0.703,0.625 -1.484,-2.187 -0.471,-2.421 z"
     id="WA" /><path
     d="m 362.778,473.88 21.931,1.05 30.052,1.104 -2.257,22.672 -0.287,17.545 0.066,2.012 4.198,3.691 1.679,0.795 1.748,0.245 0.663,-1.214 0.861,0.838 1.679,0.464 1.551,-0.706 1.101,0.396 -0.287,3.29 4.132,0.997 2.586,0.795 3.822,0.508 2.121,1.767 3.14,-1.523 2.694,0.353 1.966,2.694 1.038,0.311 -0.155,1.899 2.986,1.129 2.675,-1.744 1.457,0.351 2.276,0.157 0.418,1.808 4.485,1.924 2.567,-0.198 1.923,-3.977 h 0.329 l 1.104,1.835 4.288,0.972 3.225,1.17 3.183,0.729 2.078,-0.729 0.817,-2.43 h 3.579 l 1.833,0.729 2.962,-1.523 h 0.64 l 0.353,1.082 h 4.132 l 2.322,-1.214 1.612,0.287 1.369,1.81 2.784,1.612 3.404,1.04 2.65,1.37 2.365,1.567 3.183,-0.861 1.876,0.951 0.495,9.799 0.323,9.378 0.663,9.214 0.508,3.911 2.586,4.442 1.04,3.932 3.732,6.079 0.532,2.783 0.508,0.974 -0.664,7.245 -2.562,4.24 0.927,2.766 -0.353,2.43 -0.817,7.072 -1.327,2.628 0.585,4.24 -5.476,1.533 -9.531,4.374 -0.936,1.875 -2.501,1.876 -2.031,1.406 -1.25,0.781 -5.469,5.155 -2.656,2.031 -5.155,3.124 -5.469,2.345 -6.094,3.281 -1.719,1.406 -5.626,3.438 -3.281,0.625 -3.75,5.312 -3.907,0.313 -0.937,1.875 2.188,1.875 -1.406,5.312 -1.25,4.376 -1.094,3.749 -0.782,4.376 0.782,2.345 1.719,6.719 0.937,5.937 1.719,2.656 -0.937,1.406 -2.969,1.875 -5.468,-3.749 -5.313,-1.095 -1.25,0.47 -3.125,-0.625 -4.062,-2.969 -5,-1.093 -7.344,-3.283 -2.031,-3.749 -1.25,-6.25 -3.124,-1.876 -0.625,-2.188 0.625,-0.625 0.312,-3.281 -1.25,-0.625 -0.625,-0.938 1.25,-4.219 -1.562,-2.186 -3.125,-1.252 -3.281,-4.217 -3.438,-6.407 -4.062,-2.499 0.156,-1.876 -5.156,-11.874 -0.782,-4.063 -1.719,-1.875 -0.156,-1.406 -5.781,-5.157 -2.5,-2.968 v -1.095 l -2.5,-2.031 -6.563,-1.093 -7.187,-0.625 -2.969,-2.188 -4.375,1.718 -3.438,1.406 -2.187,3.126 -0.938,3.594 -4.219,5.937 -2.344,2.343 -2.5,-0.936 -1.719,-1.095 -1.875,-0.625 -3.75,-2.188 v -0.625 l -1.719,-1.875 -5,-2.031 -7.187,-7.5 -2.187,-4.531 v -7.813 l -3.125,-6.248 -0.469,-2.658 -1.563,-0.936 -1.094,-2.031 -4.844,-2.031 -1.25,-1.563 -6.875,-7.657 -1.25,-3.124 -4.531,-2.188 -1.406,-4.219 -2.5,-2.813 -1.875,-0.468 -0.628,-4.521 7.734,0.663 28.063,2.652 28.063,1.546 2.21,-22.98 3.756,-53.695 1.547,-18.121 1.326,0.028 m 95.667,226.146 -0.547,-6.875 -2.656,-6.953 -0.547,-6.798 1.484,-7.968 3.204,-6.641 3.359,-5.233 3.047,-3.438 0.625,0.234 -4.609,6.405 -4.219,6.33 -1.953,6.405 -0.312,5.001 0.859,5.937 2.5,6.953 0.469,5.001 0.156,1.406 -0.86,0.234 z"
     id="TX" /><path
     d="m 149.84,525.474 3.687,-0.474 1.437,-1.943 0.707,-1.876 -3.07,-0.087 -1.062,-1.705 0.752,-1.657 -0.044,-5.945 2.144,-1.284 2.607,-2.497 0.397,-4.75 1.591,-3.381 1.878,-2.033 3.16,-1.657 1.236,-0.706 0.731,-1.433 -0.839,-0.863 -0.929,-1.461 -0.905,-5.169 -2.807,-5.061 0.094,-2.694 -2.128,-3.139 -14.497,-22.451 -18.783,-27.753 -21.677,-31.928 -12.277,-18.891 1.737,-6.967 6.584,-25.08 7.844,-30.383 -11.951,-3.225 -13.037,-3.315 -12.153,-3.978 -7.292,-1.989 -11.049,-2.872 -6.815,-2.331 -1.527,4.566 -0.156,7.188 -5,11.406 -2.969,2.5 -0.312,1.093 -1.719,0.782 -1.406,4.062 -0.782,3.125 2.657,4.062 1.562,4.063 1.094,3.437 -0.312,6.25 -1.718,2.97 -0.625,5.625 -0.938,3.594 1.719,3.75 2.656,4.375 2.188,4.687 1.25,3.907 -0.312,3.125 -0.312,0.469 v 2.031 l 5.469,6.094 -0.471,2.343 -0.625,2.187 -0.625,1.875 0.156,7.969 2.031,3.594 1.875,2.5 2.656,0.469 0.938,2.657 -1.094,3.438 -2.031,1.562 h -1.093 l -0.781,3.749 0.469,2.813 3.125,4.219 1.563,5.156 1.406,4.532 1.25,2.968 3.281,5.626 1.406,2.5 0.469,2.812 1.563,0.938 v 2.343 l -0.782,1.876 -1.719,6.875 -0.469,1.875 2.344,2.656 4.062,0.468 4.375,1.72 3.75,2.031 h 2.812 l 2.813,2.968 2.5,4.687 1.093,2.188 3.75,2.031 4.688,0.782 1.406,2.031 0.625,3.124 -1.406,0.627 0.312,0.936 3.125,0.782 2.656,0.157 2.813,4.531 3.75,4.062 0.781,2.188 2.5,4.062 0.313,3.124 v 9.063 l 0.469,1.72 9.688,1.404 19.063,2.658 13.442,0.941 z m -85.005,-48.053 1.25,1.484 -0.156,1.25 -3.125,-0.077 -0.547,-1.172 -0.625,-1.406 3.203,-0.079 z m 1.875,0 1.172,-0.625 3.438,2.031 2.969,1.17 -0.859,0.625 -4.375,-0.234 -1.563,-1.561 -0.782,-1.406 z m 20.001,19.14 1.719,2.265 0.781,0.938 1.484,0.547 0.547,-1.406 -0.937,-1.72 -2.578,-1.954 -1.016,0.157 v 1.173 z m -1.407,8.359 1.719,3.047 1.172,1.876 -1.406,0.234 -1.25,-1.172 c 0,0 -0.703,-1.406 -0.703,-1.797 0,-0.391 0,-2.109 0,-2.109 l 0.468,-0.079 z"
     id="CA" /><path
     d="m 150.812,526.195 -2.539,2.086 -0.312,1.406 0.469,0.938 18.281,10.311 11.719,7.345 14.219,8.28 16.25,9.688 11.875,2.345 24.287,2.615 2.446,-12.089 3.627,-26.33 6.732,-51.111 4.115,-29.93 -23.773,-3.555 -26.296,-4.42 -32.31,-6.106 -2.824,17.487 -0.442,0.442 -1.657,2.541 -2.43,-0.109 -1.215,-2.652 -2.652,-0.332 -0.884,-1.104 h -0.883 l -0.884,0.553 -1.878,0.993 -0.11,6.741 -0.221,1.657 -0.552,12.153 -1.437,2.099 -0.552,3.204 2.651,4.751 1.216,5.633 0.774,0.995 0.994,0.553 -0.111,2.209 -1.547,1.327 -3.314,1.657 -1.878,1.878 -1.437,3.534 -0.552,4.751 -2.762,2.652 -1.989,0.663 -0.11,5.635 -0.442,1.657 0.442,0.772 3.535,0.553 -0.552,2.652 -1.437,2.099 -3.65,0.883 z"
     id="AZ" /><path
     d="m 107.885,313.25 c 30,7.57 60,13.94 90.75,19.52 l -19.2,100 -3.435,21.143 -0.442,1.061 -1.037,2.386 -1.81,-0.109 -1.06,-2.652 -2.651,-0.487 -1.349,-0.95 -1.969,0.311 -0.884,0.706 -1.258,1.304 -0.42,6.741 -0.531,1.657 -0.397,11.687 -1.278,1.657 -68.58,-102.9 15.92,-61.73 z"
     id="NV" /><path
     d="m 262.179,450.619 -23.818,-3.357 -25.675,-4.73 -32.695,-5.818 1.535,-8.851 3.094,-14.694 3.204,-16.02 2.1,-13.148 1.878,-8.618 3.646,-19.777 3.425,-16.904 1.077,-5.386 12.292,2.182 11.601,1.989 9.944,1.768 8.065,1.326 3.555,0.463 -1.435,10.275 -2.234,12.732 7.546,0.897 15.858,1.744 7.936,0.827 -2.059,21.233 -3.094,21.811 -3.627,26.894 -1.61,10.737 -0.509,2.425 z"
     id="UT" /><path
     d="m 383.624,399.866 1.392,-20.569 -31.021,-2.962 -23.645,-2.609 -36.018,-3.978 -19.998,-2.43 -2.541,21.434 -3.094,21.655 -3.627,27.05 -1.455,10.737 -0.243,2.669 32.791,3.668 36.477,4.125 30.891,3.058 16.052,0.819"
     id="CO" /><path
     d="m 290.937,568.283 -0.629,-5.918 8.355,0.508 28.528,2.962 27.443,1.391 1.9,-21.585 3.601,-54.007 1.082,-18.74 1.946,0.338 -0.014,-10.704 -31.126,-2.324 -35.702,-4.278 -33.311,-3.978 -4.06,29.728 -6.732,51.421 -3.627,26.021 -1.981,12.863 14.943,1.924 1.25,-9.688 16.094,2.499 12.04,1.567 z"
     id="NM" /><path
     d="m 153.285,322.436 4.154,-17.301 4.508,-17.281 1.016,-4.088 2.276,-5.435 -0.595,-1.124 -2.431,-0.044 -1.239,-1.615 0.442,-1.415 0.487,-3.138 4.309,-5.303 1.768,-1.062 1.105,-1.105 1.436,-3.447 3.912,-5.48 3.446,-3.733 0.221,-3.336 -3.159,-2.386 -1.169,-4.359 -12.795,-3.619 -14.584,-3.425 -14.915,0.11 -0.442,-1.326 -5.303,1.989 -4.309,-0.553 -2.321,-1.547 -1.215,0.663 -4.53,-0.221 -1.657,-1.326 -5.082,-1.989 -0.774,0.11 -4.198,-1.436 -1.878,1.767 -5.966,-0.331 -5.745,-3.978 0.663,-0.774 0.221,-7.513 -2.21,-3.757 -3.978,-0.553 -0.663,-2.43 -2.275,-0.451 -5.605,1.99 -2.187,6.25 -3.125,9.688 -3.125,6.25 -4.844,13.594 -6.25,13.125 -7.812,12.188 -1.875,2.812 -0.781,8.281 -1.25,5.781 2.618,3.409 6.504,2.176 11.204,3.183 7.602,2.454 11.998,3.512 12.882,3.47 12.727,3.446"
     id="OR" /><path
     d="m 473.207,275.059 -0.353,-7.245 -1.923,-7.071 -1.768,-13.193 -0.442,-9.502 -1.924,-3.004 -1.546,-5.172 v -9.944 l 0.663,-3.757 -2.044,-5.315 -27.473,-0.545 -17.969,-0.625 -25.625,-1.25 -24.111,-1.821 -1.219,13.754 -1.326,14.584 -2.183,24.112 -0.47,10.652 54.915,3.638 54.798,1.704 z"
     id="ND" /><path
     d="m 474.648,348.044 -0.921,-1.044 -1.471,-3.506 1.768,-3.578 1.016,-5.369 -2.497,-1.989 -0.287,-2.652 0.574,-3.396 2.078,-0.075 -0.066,-34.779 -0.597,-2.873 -3.978,-3.47 -0.95,-1.923 v -1.857 l 1.834,-1.236 1.481,-1.791 0.176,-2.628 -55.462,-1.547 -54.294,-3.757 -5.15,61.56 c 27.74,1.7 55.5,3.4 80.22,4.36 l 5,-0.5 2.765,2.21 4.175,2.873 0.951,0.729 3.422,-0.861 3.911,-0.286 2.651,-0.066 3.009,1.171 4.396,1.391 3.028,1.702 0.597,1.857 0.883,1.833 0.682,-0.465 1.056,-0.038 z"
     id="SD" /><path
     d="m 485.712,390.387 1.327,2.586 0.089,2.055 2.275,3.601 2.63,3.047 h -4.882 l -42.027,-0.908 -39.422,-0.86 -20.482,-0.929 1.037,-20.614 -32.261,-2.652 4.198,-42.537 15.026,0.994 19.446,1.105 17.235,1.105 22.982,1.105 10.385,-0.442 1.989,2.21 4.64,2.873 1.105,0.884 4.198,-1.326 3.757,-0.442 2.651,-0.221 1.768,1.326 4.861,1.547 2.873,1.547 0.442,1.547 0.883,1.989 h 1.768 l 0.771,0.044 0.951,5.038 2.651,7.757 1.194,4.485 2.055,3.691 0.508,4.772 1.391,4.133 0.53,6.253"
     id="NE" /><path
     d="m 565.305,346.544 0.164,1.877 2.211,1.102 1.102,1.215 0.332,1.219 3.757,3.095 0.664,2.1 -0.774,2.766 -1.438,3.426 -0.772,2.65 -2.101,1.548 -1.657,0.553 -5.301,1.436 -0.664,2.206 -0.772,2.208 0.553,1.326 1.659,1.656 -0.002,3.539 -2.097,1.547 -0.444,1.437 v 2.432 l -1.438,0.442 -1.657,1.324 -0.44,1.436 0.44,1.66 -1.327,1.164 -2.218,-2.601 -1.433,-2.539 -8.063,0.773 -9.83,0.552 -24.199,0.664 -12.599,0.221 -9.059,0.221 -1.272,0.118 -1.599,-4.322 -0.221,-6.408 -1.546,-3.978 -0.663,-5.082 -2.211,-3.535 -0.883,-4.641 -2.651,-7.292 -1.105,-5.193 -1.326,-2.099 -1.546,-2.652 1.768,-4.198 1.325,-5.525 -2.651,-1.989 -0.442,-2.651 0.883,-2.431 h 1.657 11.158 l 47.951,-0.663 19.212,-0.663 1.79,2.655 1.771,2.534 0.44,0.777 -1.769,2.657 0.44,4.081 2.431,3.756 2.869,1.763 2.324,0.222 1.269,2.104 z"
     id="IA" /><path
     d="m 621.33,603.004 -0.245,1.214 h -4.999 l -1.406,-0.782 -2.031,-0.311 -6.564,1.875 -1.718,-0.781 -2.501,4.062 -1.065,0.753 -1.085,-2.405 -1.106,-3.757 -3.315,-3.094 1.106,-7.292 -0.663,-0.883 -1.769,0.221 -7.955,0.663 -23.423,0.664 -0.442,-1.548 0.663,-7.734 3.315,-5.965 5.082,-8.838 -0.883,-1.99 h 1.106 l 0.663,-3.094 -2.211,-1.767 0.221,-1.769 -1.988,-4.419 -0.277,-5.165 1.327,-2.569 -0.387,-4.198 -1.325,-2.871 1.325,-1.327 -1.325,-1.988 0.442,-1.769 0.883,-5.965 2.873,-2.652 -0.664,-1.988 3.536,-5.084 2.652,-0.883 v -2.43 l -0.663,-1.327 2.65,-5.082 2.652,-1.104 0.104,-3.298 8.385,-0.076 23.282,-1.875 4.427,-0.221 0.008,6.158 0.157,16.095 -0.782,29.998 -0.157,13.594 2.656,18.126 1.434,14.878 z"
     id="MS" /><path
     d="m 615.399,442.45 0.062,-2.763 0.468,-4.375 2.188,-2.813 1.72,-3.75 2.499,-4.062 -0.468,-5.625 -1.72,-2.656 -0.311,-3.125 0.78,-5.312 -0.468,-6.719 -1.25,-15.469 -1.25,-14.844 -0.938,-11.327 2.968,0.859 1.406,0.938 1.095,-0.312 2.031,-1.875 2.733,-1.563 4.923,-0.157 21.25,-2.187 5.388,-0.515 1.454,15.422 4.11,35.608 0.578,5.578 -0.359,2.187 1.187,1.735 0.092,1.327 -2.437,1.546 -3.421,1.499 -3.096,0.532 -0.578,4.704 -4.421,3.202 -2.703,3.876 0.312,2.297 -0.561,1.483 h -3.215 l -1.533,-1.563 -2.411,1.22 -2.592,1.453 0.155,2.952 -1.153,0.249 -0.451,-0.984 -2.095,-1.453 -3.141,1.296 -1.499,2.905 -1.389,-0.782 -1.406,-1.545 -4.315,0.469 -5.407,0.936 -2.811,1.503 z"
     id="IN" /><path
     d="m 614.802,443.172 v -3.485 l 0.249,-4.704 2.297,-3.032 1.72,-3.64 2.499,-3.734 -0.359,-5.077 -1.939,-3.424 -0.093,-3.235 0.672,-5.093 -0.799,-6.938 -1.031,-15.25 -1.25,-14.514 -0.891,-11.25 -0.264,-0.891 -0.781,-2.5 -1.25,-3.593 -1.563,-1.719 -1.405,-2.5 -0.227,-5.305 -9.571,1.268 -26.297,1.657 -8.397,-0.414 0.221,2.293 2.211,0.663 0.883,1.105 0.442,1.768 3.757,3.314 0.663,2.21 -0.663,3.314 -1.767,3.536 -0.664,2.43 -2.205,1.769 -1.769,0.663 -5.082,1.326 -0.663,1.768 -0.663,1.989 0.663,1.326 1.767,1.547 -0.221,3.978 -1.767,1.547 -0.663,1.547 v 2.651 l -1.769,0.442 -1.546,1.105 -0.221,1.326 0.221,1.989 -1.657,1.27 -0.995,2.707 0.442,3.535 2.211,7.071 7.072,7.292 5.303,3.535 -0.221,4.198 0.883,1.326 6.188,0.442 2.65,1.326 -0.663,3.536 -2.209,5.745 -0.663,3.094 2.209,3.756 6.188,5.083 4.419,0.663 1.988,4.861 1.99,3.094 -0.883,2.873 1.546,3.978 1.767,1.988 1.88,-0.765 0.663,-2.092 1.969,-1.389 3.128,-1.065 2.985,1.14 2.781,1.031 0.765,-0.202 -0.064,-1.201 -1.031,-2.673 0.423,-2.297 2.205,-1.516 2.28,-0.953 1.123,-0.406 -0.563,-1.28 -0.734,-2.094 1.204,-1.22 0.936,-2.624 z"
     id="IL" /><path
     d="m 473.761,275.835 -0.442,-8.176 -1.768,-7.071 -1.768,-13.037 -0.442,-9.502 -1.768,-3.314 -1.547,-4.861 v -9.944 l 0.664,-3.757 -1.76,-5.269 29.124,0.034 0.313,-7.969 0.625,-0.156 2.186,0.469 1.876,0.782 0.782,5.313 1.405,5.937 1.563,1.562 h 4.687 l 0.313,1.406 6.094,0.312 v 2.031 h 4.687 l 0.311,-1.25 1.095,-1.094 2.188,-0.625 1.25,0.937 h 2.813 l 3.749,2.5 5.157,2.344 2.343,0.469 0.468,-0.937 1.406,-0.469 0.47,2.813 2.499,1.25 0.468,-0.469 1.25,0.156 v 2.031 l 2.501,0.938 h 2.968 l 1.563,-0.782 3.126,-3.125 2.499,-0.469 0.782,1.719 0.468,1.25 h 0.938 l 0.936,-0.781 8.595,-0.312 1.718,2.968 h 0.625 l 0.691,-1.048 4.291,-0.358 -0.593,2.203 -3.806,1.775 -8.937,3.925 -4.616,1.94 -2.968,2.5 -2.345,3.437 -2.188,3.75 -1.718,0.782 -4.376,4.844 -1.25,0.156 -3.713,2.836 -2.722,3.055 -0.221,2.871 0.219,7.518 -1.542,1.547 -5.084,3.976 -1.771,5.526 2.435,3.525 0.442,2.436 -1.108,2.875 -0.221,3.537 0.444,6.847 3.311,3.969 h 2.875 l 2.426,2.216 3.096,1.32 3.536,4.866 6.851,4.855 1.769,1.993 0.227,5.318 -19.899,0.663 -58.232,0.444 -0.327,-34.483 -0.442,-2.873 -3.978,-3.314 -1.105,-1.768 v -1.547 l 1.989,-1.547 1.326,-1.326 0.224,-3.093 z"
     id="MN" /><path
     d="m 610.102,342.246 0.359,-2.87 -1.563,-4.376 -0.625,-5.937 -1.093,-2.344 0.936,-2.969 0.782,-2.813 1.406,-2.5 -0.625,-3.281 -0.625,-3.438 0.468,-1.719 1.875,-2.344 0.157,-2.656 -0.782,-1.25 0.625,-2.5 0.47,-3.125 2.656,-5.468 2.813,-6.563 0.155,-2.187 -0.311,-0.938 -0.782,0.469 -4.062,6.094 -2.656,3.906 -1.875,1.719 -0.782,2.187 -1.406,0.781 -1.093,1.876 -1.406,-0.312 -0.157,-1.719 1.25,-2.344 2.031,-4.531 1.718,-1.563 1.065,-2.215 -1.576,-0.875 -1.325,-1.326 -1.546,-9.944 -3.536,-1.105 -1.325,-2.21 -12.153,-2.651 -2.431,-1.105 -7.955,-2.21 -7.955,-1.105 -4.03,-5.224 -0.512,1.219 -1.093,-0.156 -0.625,-1.094 -2.656,-0.781 -1.095,0.156 -1.718,0.938 -0.938,-0.625 0.625,-1.875 1.875,-2.969 1.095,-1.094 -1.875,-1.406 -2.031,0.781 -2.813,1.875 -7.189,3.125 -2.813,0.625 -2.811,-0.469 -0.95,-0.849 -2.046,2.74 -0.221,2.652 v 8.176 l -1.104,1.547 -5.082,3.756 -2.211,5.745 0.442,0.221 2.431,1.989 0.663,3.094 -1.769,3.094 v 3.757 l 0.444,6.408 2.871,2.873 h 3.315 l 1.769,3.094 3.313,0.442 3.757,5.524 6.851,3.978 1.988,2.652 0.885,7.181 0.663,3.204 2.209,1.547 0.221,1.326 -1.988,3.314 0.221,3.094 2.431,3.757 2.43,1.105 2.873,0.442 1.297,1.334 h 8.867 l 25.194,-1.437 9.719,-1.325 z"
     id="WI" /><path
     d="m 554.862,392.84 -2.435,-2.984 -1.104,-2.21 -7.513,0.663 -9.503,0.442 -24.528,0.884 -13.037,0.221 -7.623,0.111 -2.211,0.11 1.216,2.43 -0.221,2.21 2.43,3.757 2.985,3.978 2.983,2.651 2.209,0.221 1.327,0.884 v 2.872 l -1.769,1.547 -0.442,2.21 1.99,3.315 2.43,2.872 2.431,1.768 1.325,11.269 -0.663,34.141 0.221,4.529 0.442,5.205 22.649,-0.113 22.428,-0.663 20.108,-0.776 11.266,-0.221 2.095,3.311 -0.661,3.196 -2.985,2.322 -0.553,1.776 5.199,0.442 3.764,-0.663 1.661,-5.31 0.629,-5.659 2.241,-1.958 1.656,-1.437 1.988,-0.997 0.111,-2.764 0.555,-1.657 -0.997,-1.69 -2.652,0.14 -2.097,-2.537 -1.327,-4.087 0.774,-2.435 -1.878,-3.313 -1.771,-4.422 -4.638,-0.773 -6.736,-5.411 -1.661,-3.976 0.772,-3.094 1.992,-5.855 0.444,-2.768 -1.884,-0.997 -6.626,-0.771 -0.995,-1.655 -0.108,-4.089 -5.303,-3.316 -6.743,-7.511 -2.209,-7.071 -0.223,-4.084 0.775,-2.21 z"
     id="MO" /><path
     d="m 588.85,485.072 -3.719,0.906 -5.967,-0.442 0.664,-2.873 3.092,-2.652 0.442,-2.209 -1.767,-2.873 -10.607,0.442 -20.108,0.885 -22.538,0.663 -22.54,0.442 1.548,6.628 v 7.955 l 1.325,10.607 0.221,36.572 2.211,1.878 2.871,-1.327 2.652,1.106 0.415,9.977 22.121,-0.138 18.232,-0.774 9.782,-0.191 1.108,-2.02 -0.278,-3.432 -1.765,-2.871 1.546,-1.437 -1.546,-2.428 0.663,-2.426 1.321,-5.418 2.435,-1.994 -0.663,-2.207 3.534,-5.193 2.652,-1.321 -0.109,-1.444 -0.334,-1.765 2.762,-5.41 2.322,-1.216 0.372,-3.313 1.71,-1.199 0.829,-4.093 -1.297,-3.877 3.906,-2.297 0.532,-1.95 1.195,-4.125 0.775,-3.146 z"
     id="AR" /><path
     d="m 380.456,463.439 -10.331,-0.442 -6.214,-0.468 0.248,0.193 -0.68,10.073 21.23,1.359 30.983,1.261 -2.257,23.601 -0.442,17.235 0.221,1.548 4.198,3.536 1.989,1.104 0.664,-0.221 0.663,-1.99 1.325,1.769 h 1.989 v -1.325 l 2.652,1.325 -0.442,3.757 3.978,0.221 2.43,1.104 3.978,0.663 2.43,1.769 2.21,-1.99 3.315,0.663 2.43,3.315 h 0.883 v 2.211 l 2.21,0.663 2.211,-2.211 1.767,0.664 h 2.431 l 0.883,2.43 4.64,1.769 1.326,-0.664 1.768,-3.977 h 1.104 l 1.105,1.99 3.978,0.663 3.536,1.325 2.872,0.885 1.768,-0.885 0.663,-2.43 h 4.199 l 1.988,0.883 2.652,-1.988 h 1.104 l 0.664,1.546 h 3.978 l 1.546,-1.99 1.767,0.444 1.99,2.43 3.094,1.769 3.092,0.883 1.876,1.082 -0.376,-35.971 -1.325,-10.607 -0.157,-8.576 -1.391,-6.318 -0.751,-6.939 -0.066,-3.689 -11.731,0.308 -44.857,-0.442 -43.531,-1.988 -23.477,-1.33 z"
     id="OK" /><path
     d="m 504.208,465.912 -12.195,0.198 -44.548,-0.442 -43.065,-1.988 -23.806,-1.216 4.005,-62.555 21.102,0.774 39.112,1.326 42.649,0.442 h 4.925 l 3.137,3.117 2.675,0.221 0.861,1.039 v 1.942 l -1.767,1.547 -0.444,2.52 2.145,3.47 2.431,3.028 2.43,1.923 1.016,10.804 -0.663,33.85 z"
     id="KS" /><path
     d="m 599.723,608.828 -0.995,-2.528 -1.106,-2.99 -3.204,-3.422 0.885,-6.524 -0.115,-1.102 -1.219,0.33 -7.955,0.882 -24.19,0.444 -0.663,-2.314 0.883,-8.172 3.203,-5.746 4.863,-8.401 -0.553,-2.318 1.214,-0.659 0.444,-1.886 -2.211,-1.988 -0.108,-1.878 -1.769,-4.198 -0.442,-5.743 -9.399,0.109 -18.562,0.883 -21.462,0.028 0.028,9.254 0.663,9.059 0.663,3.757 2.431,3.978 0.883,4.861 4.198,5.303 0.221,3.094 0.664,0.663 -0.664,8.176 -2.871,4.861 1.546,1.99 -0.663,2.43 -0.663,7.072 -1.327,3.094 0.119,3.496 4.531,-1.471 7.812,-0.311 9.999,3.438 6.25,1.093 3.594,-1.406 3.124,1.095 3.126,0.936 0.78,-2.031 -3.124,-1.093 -2.499,0.468 -2.656,-1.563 c 0,0 0.155,-1.25 0.781,-1.406 0.625,-0.155 2.968,-0.936 2.968,-0.936 l 1.72,1.406 1.718,-0.938 3.126,0.625 1.404,2.345 0.313,2.188 4.376,0.311 1.718,1.72 -0.782,1.561 -1.25,0.782 1.563,1.563 8.125,3.438 3.438,-1.25 0.936,-2.345 2.501,-0.625 1.718,-1.406 1.25,0.938 0.782,2.811 -2.188,0.781 0.625,0.625 3.283,-1.25 2.186,-3.281 0.781,-0.468 -2.031,-0.313 0.781,-1.561 -0.157,-1.406 2.031,-0.47 1.095,-1.25 0.625,0.781 c 0,0 -0.157,2.969 0.625,2.969 0.781,0 4.062,0.625 4.062,0.625 l 3.906,1.875 0.938,1.406 h 2.813 l 1.093,0.936 2.188,-2.968 v -1.406 h -1.25 l -3.283,-2.656 -5.624,-0.782 -3.126,-2.188 1.095,-2.656 2.188,0.313 0.155,-0.625 -1.718,-0.938 v -0.468 h 3.124 l 1.72,-2.969 -1.25,-1.875 -0.313,-2.656 -1.406,0.155 -1.875,2.031 -0.625,2.501 -2.969,-0.625 -0.938,-1.72 1.72,-1.875 1.954,-1.718 -0.344,-0.706 z"
     id="LA" /><path
     d="m 818.839,411.898 -0.138,-1.882 6.237,-2.464 -0.746,3.11 -2.822,3.652 -0.404,4.432 0.447,3.277 -1.767,4.811 -2.092,1.852 -1.422,-4.485 0.43,-5.267 1.535,-4.043 0.742,-2.993 z m 2.205,27.355 -56.229,12.153 -36.173,5.103 -6.456,-0.362 -2.497,1.863 -7.094,0.213 -8.1,0.944 -8.629,0.919 8.197,-4.782 -0.011,-2.005 1.469,-2.075 10.2,-11.117 3.815,4.328 3.657,0.932 2.458,-1.102 2.163,-1.267 2.452,1.299 3.783,-1.38 1.812,-4.405 2.515,0.521 2.76,-2.059 1.739,0.477 2.733,-3.553 0.336,-2.013 -0.931,-1.233 0.968,-1.804 5.099,-11.866 0.595,-5.543 1.189,-0.506 2.105,2.361 3.804,-0.291 1.865,-7.32 2.699,-0.542 1.016,-2.649 2.494,-2.268 1.225,-2.264 1.454,-3.241 0.081,-4.898 9.494,3.695 c 0.659,0.329 0.634,-4.624 0.634,-4.624 l 3.915,1.331 -0.447,2.541 7.883,2.841 1.25,1.734 -0.838,3.559 -1.221,1.281 -0.489,1.688 0.478,2.322 1.893,1.236 3.787,1.397 2.851,0.935 4.693,0.911 2.08,2.018 3.085,0.389 0.838,1.16 -0.425,4.533 1.329,1.066 -0.463,1.866 1.187,0.763 -0.213,1.338 -2.605,-0.092 0.087,1.562 2.205,1.491 0.117,1.364 1.714,1.726 0.474,2.439 -2.467,1.335 1.52,1.444 5.607,-1.629 3.484,5.812 z"
     id="VA" /><rect
     width="33"
     height="18.5"
     x="15"
     y="0"
     id="keyBox" /></defs>
    
    
    
    




    





<rect
   width="980"
   height="594"
   x="-1.6315615e-06"
   y="0"
   id="rect63"
   style="fill:#c0c6d7" /><g
   transform="matrix(1.03463,0,0,1.03463,-18.287001,-156.915)"
   id="States">
      <use
   id="use66"
   style="fill:#d0e894"
   x="0"
   y="0"
   width="990"
   height="594"
   xlink:href="#AL" />
      <use
   id="use68"
   style="fill:#bbeebb"
   x="0"
   y="0"
   width="990"
   height="594"
   xlink:href="#HI" />
      <use
   id="use70"
   style="fill:#bbeebb"
   x="0"
   y="0"
   width="990"
   height="594"
   xlink:href="#AK" />
      <use
   id="use72"
   style="fill:#ee3344"
   x="0"
   y="0"
   width="990"
   height="594"
   xlink:href="#FL" />
      <use
   id="use74"
   style="fill:#ee7755"
   x="0"
   y="0"
   width="990"
   height="594"
   xlink:href="#SC" />
      <use
   id="use76"
   style="fill:#ee7755"
   x="0"
   y="0"
   width="990"
   height="594"
   xlink:href="#GA" />
      <use
   id="use78"
   style="fill:#ee7755"
   x="0"
   y="0"
   width="990"
   height="594"
   xlink:href="#NC" />
      <use
   id="use80"
   style="fill:#ee7755"
   x="0"
   y="0"
   width="990"
   height="594"
   xlink:href="#TN" />
      <use
   id="use82"
   style="fill:#eebb66"
   x="0"
   y="0"
   width="990"
   height="594"
   xlink:href="#RI" />
      <use
   id="use84"
   style="fill:#eebb66"
   x="0"
   y="0"
   width="990"
   height="594"
   xlink:href="#CT" />
      <use
   id="use86"
   style="fill:#eeee77"
   x="0"
   y="0"
   width="990"
   height="594"
   xlink:href="#MA" />
      <use
   id="use88"
   style="fill:#bbeeaa"
   x="0"
   y="0"
   width="990"
   height="594"
   xlink:href="#ME" />
      <use
   id="use90"
   style="fill:#bbeeaa"
   x="0"
   y="0"
   width="990"
   height="594"
   xlink:href="#NH" />
      <use
   id="use92"
   style="fill:#bbeebb"
   x="0"
   y="0"
   width="990"
   height="594"
   xlink:href="#VT" />
      <use
   id="use94"
   style="fill:#ee3344"
   x="0"
   y="0"
   width="990"
   height="594"
   xlink:href="#NJ" />
      <use
   id="use96"
   style="fill:#ee3344"
   x="0"
   y="0"
   width="990"
   height="594"
   xlink:href="#NY" />
      <use
   id="use98"
   style="fill:#eeee77"
   x="0"
   y="0"
   width="990"
   height="594"
   xlink:href="#PA" />
      <use
   id="use100"
   style="fill:#ee3344"
   x="0"
   y="0"
   width="990"
   height="594"
   xlink:href="#DE" />
      <use
   id="use102"
   style="fill:#ee3344"
   x="0"
   y="0"
   width="990"
   height="594"
   xlink:href="#MD" />
      <use
   id="use104"
   style="fill:#d0e894"
   x="0"
   y="0"
   width="990"
   height="594"
   xlink:href="#WV" />
      <use
   id="use106"
   style="fill:#d0e894"
   x="0"
   y="0"
   width="990"
   height="594"
   xlink:href="#KY" />
      <use
   id="use108"
   style="fill:#eeee77"
   x="0"
   y="0"
   width="990"
   height="594"
   xlink:href="#OH" />
      <use
   id="use110"
   style="fill:#d0e894"
   x="0"
   y="0"
   width="990"
   height="594"
   xlink:href="#MI" />
      <use
   id="use112"
   style="fill:#bbeebb"
   x="0"
   y="0"
   width="990"
   height="594"
   xlink:href="#WY" />
      <use
   id="use114"
   style="fill:#bbeebb"
   x="0"
   y="0"
   width="990"
   height="594"
   xlink:href="#MT" />
      <use
   id="use116"
   style="fill:#bbeebb"
   x="0"
   y="0"
   width="990"
   height="594"
   xlink:href="#ID" />
      <use
   id="use118"
   style="fill:#eeee77"
   x="0"
   y="0"
   width="990"
   height="594"
   xlink:href="#WA" />
      <use
   id="use120"
   style="fill:#ee7755"
   x="0"
   y="0"
   width="990"
   height="594"
   xlink:href="#TX" />
      <use
   id="use122"
   style="fill:#eebb66"
   x="0"
   y="0"
   width="990"
   height="594"
   xlink:href="#CA" />
      <use
   id="use124"
   style="fill:#eebb66"
   x="0"
   y="0"
   width="990"
   height="594"
   xlink:href="#AZ" />
      <use
   id="use126"
   style="fill:#ee7755"
   x="0"
   y="0"
   width="990"
   height="594"
   xlink:href="#NV" />
      <use
   id="use128"
   style="fill:#ee7755"
   x="0"
   y="0"
   width="990"
   height="594"
   xlink:href="#MS" />
      <use
   id="use130"
   style="fill:#bbeebb"
   x="0"
   y="0"
   width="990"
   height="594"
   xlink:href="#UT" />
      <use
   id="use132"
   style="fill:#bbeeaa"
   x="0"
   y="0"
   width="990"
   height="594"
   xlink:href="#NE" />
      <use
   id="use134"
   style="fill:#bbeeaa"
   x="0"
   y="0"
   width="990"
   height="594"
   xlink:href="#WI" />
      <use
   id="use136"
   style="fill:#eebb66"
   x="0"
   y="0"
   width="990"
   height="594"
   xlink:href="#MO" />
      <use
   id="use138"
   style="fill:#eeee77"
   x="0"
   y="0"
   width="990"
   height="594"
   xlink:href="#CO" />
      <use
   id="use140"
   style="fill:#d0e894"
   x="0"
   y="0"
   width="990"
   height="594"
   xlink:href="#OK" />
      <use
   id="use142"
   style="fill:#eeee77"
   x="0"
   y="0"
   width="990"
   height="594"
   xlink:href="#NM" />
      <use
   id="use144"
   style="fill:#d0e894"
   x="0"
   y="0"
   width="990"
   height="594"
   xlink:href="#OR" />
      <use
   id="use146"
   style="fill:#bbeeaa"
   x="0"
   y="0"
   width="990"
   height="594"
   xlink:href="#IA" />
      <use
   id="use148"
   style="fill:#eebb66"
   x="0"
   y="0"
   width="990"
   height="594"
   xlink:href="#IL" />
      <use
   id="use150"
   style="fill:#d0e894"
   x="0"
   y="0"
   width="990"
   height="594"
   xlink:href="#MN" />
      <use
   id="use152"
   style="fill:#bbeebb"
   x="0"
   y="0"
   width="990"
   height="594"
   xlink:href="#ND" />
      <use
   id="use154"
   style="fill:#bbeebb"
   x="0"
   y="0"
   width="990"
   height="594"
   xlink:href="#SD" />
      <use
   id="use156"
   style="fill:#eeee77"
   x="0"
   y="0"
   width="990"
   height="594"
   xlink:href="#IN" />
      <use
   id="use158"
   style="fill:#d0e894"
   x="0"
   y="0"
   width="990"
   height="594"
   xlink:href="#KS" />
      <use
   id="use160"
   style="fill:#eeee77"
   x="0"
   y="0"
   width="990"
   height="594"
   xlink:href="#AR" />
      <use
   id="use162"
   style="fill:#ee3344"
   x="0"
   y="0"
   width="990"
   height="594"
   xlink:href="#LA" />
      <use
   id="use164"
   style="fill:#eebb66"
   x="0"
   y="0"
   width="990"
   height="594"
   xlink:href="#VA" />
    </g><g
   transform="translate(-17.491801,-131.941)"
   id="Frames">
    <path
   d="m 229.212,633.123 0.469,55.313 35,35.313 M 18.429,564.998 l 143.438,0.313 67.657,68.281 85.157,0.156 53.75,53.438 -0.313,36.25"
   id="Inset_border"
   style="fill:none;stroke:#a9a9ff;stroke-width:1.875;stroke-opacity:0" />
</g><g
   transform="translate(-1.6504779e-6,0)"
   id="g168"
   style="fill:none;stroke:#a9a9a9;stroke-width:1.5">
  <path
   d="M 846.333,126.368 820.417,89.962"
   id="path170" />
  <path
   d="M 867.583,126.618 854.167,75.462"
   id="path172" />
  <path
   d="m 908.015,156.371 -35.523,0.067"
   id="path174" />
  <path
   d="M 906.863,183.609 877.031,171.203"
   id="path176" />
  <path
   d="M 884.667,199.493 855.583,176.837"
   id="path178" />
  <path
   d="m 878.833,224.618 -40.916,-6.656"
   id="path180" />
  <path
   d="m 862.097,253.95 -34.166,-6.157"
   id="path182" />
  <path
   d="M 857.933,276.53 823.607,258.437"
   id="path184" />
  <path
   d="M 845.212,291.599 801.003,250.894"
   id="path186" />  
</g><path
   d="m 801.757,253.844 -1.078,-1.637 -1.014,-0.842 1.1,-1.616 2.232,1.511 -1.24,2.584 z"
   id="path188"
   style="stroke-width:1" /><g
   transform="translate(-18.068101,-130.072)"
   id="g190"> 
  <path
   d="m 229.2,623.1 0,55.3 35,45.3 M 18.4,555 l 143.4,0 68,68 87,0 57,57 0,45"
   id="path192"
   style="fill:none;stroke:#777777;stroke-width:1.875" />
</g><g
   transform="translate(-1.6504779e-6,0)"
   id="g194"
   style="font-size:22px;font-weight:bold;text-anchor:middle;fill:#000000;font-family:Arial">
   <text
   x="115"
   y="500"
   id="text196">3.1</text>

   <text
   x="653"
   y="428"
   id="text198">6.1</text>

   <text
   x="545"
   y="375"
   id="text200">8.3</text>

   <text
   x="195"
   y="370"
   id="text202">11.1</text>

   <text
   x="80"
   y="300"
   id="text204">12.5</text>

   <text
   x="315"
   y="280"
   id="text206">7.6</text>

   <text
   x="765"
   y="510"
   id="text208">28.1</text>

   <text
   x="715"
   y="423"
   id="text210">17.5</text>

   <text
   x="270"
   y="570"
   id="text212">3.2</text>

   <text
   x="520"
   y="220"
   id="text214">4.1</text>

   <text
   x="195"
   y="160"
   id="text216">2.2</text>

   <text
   x="592"
   y="247"
   id="text218">11.3</text>

   <text
   x="645"
   y="265"
   id="text220">7.7</text>

   <text
   x="440"
   y="300"
   id="text222">5.4</text>

   <text
   x="682"
   y="310"
   id="text224">6.3</text>

   <text
   x="560"
   y="480"
   id="text226">23.6</text>

   <text
   x="895"
   y="94"
   id="text228">4.6</text>

   <text
   x="665"
   y="195"
   id="text230">6.7</text>

   <text
   x="500"
   y="125"
   id="text232">5.1</text>

   <text
   x="535"
   y="305"
   id="text234">11.8</text>

   <text
   x="600"
   y="423"
   id="text236">16.1</text>

   <text
   x="280"
   y="100"
   id="text238">3.3</text>

   <text
   x="420"
   y="100"
   id="text240">2.6</text>

   <text
   x="420"
   y="230"
   id="text242">4.6</text>

   <text
   x="855"
   y="70"
   id="text244">4.4</text>

   <text
   x="302"
   y="380"
   id="text246">7.4</text>

   <text
   x="800"
   y="170"
   id="text248">29.2</text>

   <text
   x="135"
   y="230"
   id="text250">13.1</text>

   <text
   x="780"
   y="340"
   id="text252">14.1</text>

   <text
   x="700"
   y="245"
   id="text254">9.4</text>

   <text
   x="460"
   y="365"
   id="text256">6.8</text>

   <text
   x="90"
   y="130"
   id="text258">6.7</text>

   <text
   x="780"
   y="220"
   id="text260">8.6</text>

   <text
   x="760"
   y="385"
   id="text262">18.8</text>

   <text
   x="420"
   y="165"
   id="text264">3.4</text>

   <text
   x="653"
   y="350"
   id="text266">13.3</text>

   <text
   x="415"
   y="455"
   id="text268">13.5</text>

   <text
   x="220"
   y="255"
   id="text270">3.4</text>

   <text
   x="780"
   y="300"
   id="text272">10.0</text>

   <text
   x="820"
   y="90"
   id="text274">1.3</text>

   <text
   x="120"
   y="58"
   id="text276">7.3</text>

   <text
   x="575"
   y="160"
   id="text278">4.0</text>

   <text
   x="742"
   y="280"
   id="text280">5.7</text>

   <text
   x="300"
   y="185"
   id="text282">2.4</text>

  <g
   id="g284"
   style="font-size:19px;text-anchor:start">
     <text
   x="893"
   y="210"
   id="text286">11.6</text>

     <text
   x="915"
   y="162"
   id="text288">7.7</text>

     <text
   x="887"
   y="235"
   id="text290">20.3</text>

     <text
   x="917"
   y="190"
   id="text292">11.3</text>

     <text
   x="872"
   y="262"
   id="text294">21.7</text>

     <text
   x="861"
   y="284"
   id="text296">24.0</text>

     <text
   x="845"
   y="307"
   id="text298">139</text>

  </g>
</g><g
   transform="translate(800,405)"
   id="g300"
   style="font-size:18px;fill:#000000;stroke:none;font-family:Verdana"> 
  <rect
   width="160"
   height="183"
   x="6"
   y="-10"
   id="rect302"
   style="fill:#d4daed" />
  <use
   id="use304"
   style="fill:#bbeebb"
   x="0"
   y="0"
   width="990"
   height="594"
   xlink:href="#keyBox" />
  <use
   id="use306"
   style="fill:#bbeeaa"
   x="0"
   y="24"
   width="990"
   height="594"
   xlink:href="#keyBox" />
  <use
   id="use308"
   style="fill:#d0e894"
   x="0"
   y="48"
   width="990"
   height="594"
   xlink:href="#keyBox" />
  <use
   id="use310"
   style="fill:#eeee77"
   x="0"
   y="72"
   width="990"
   height="594"
   xlink:href="#keyBox" />
  <use
   id="use312"
   style="fill:#eebb66"
   x="0"
   y="96"
   width="990"
   height="594"
   xlink:href="#keyBox" />
  <use
   id="use314"
   style="fill:#ee7755"
   x="0"
   y="120"
   width="990"
   height="594"
   xlink:href="#keyBox" />
  <use
   id="use316"
   style="fill:#ee3344"
   x="0"
   y="144"
   width="990"
   height="594"
   xlink:href="#keyBox" />
  <text
   x="57"
   y="15"
   id="text318">&lt; 3.5</text>

  <text
   x="57"
   y="39"
   id="text320">3.5 - 5</text>

  <text
   x="57"
   y="63"
   id="text322">5 - 7</text>

  <text
   x="57"
   y="87"
   id="text324">7 - 9</text>

  <text
   x="57"
   y="111"
   id="text326">9 - 13</text>

  <text
   x="57"
   y="135"
   id="text328">13 - 20</text>

  <text
   x="57"
   y="159"
   id="text330">&gt; 20</text>

</g><g
   transform="translate(490,17)"
   id="g332"
   style="font-size:14px;text-anchor:middle;fill:#000000;stroke:none;font-family:Verdana">
    <text
   id="text334">Estimated Adult and Adolesents Diagnosed with Aids Per 100,000</text>

</g>
</svg>
